<svg width="360" height="760" viewBox="0 0 360 760" fill="none" xmlns="http://www.w3.org/2000/svg">
<g clip-path="url(#clip0_196_4593)">
<rect width="360" height="760" fill="#F2EFE7"/>
<path d="M280.807 714.956C268.295 687.912 280.807 674.777 257.489 603.303C234.17 531.83 234.17 500.15 257.489 494.355C280.807 488.56 362.705 554.624 404.792 624.552C446.879 694.48 448.585 808.065 404.792 793.77C360.999 779.475 293.319 742 280.807 714.956Z" fill="#CCE5EF"/>
<path d="M289.305 136.123C215.428 122.11 151.925 5.04558 263.169 0.00022137C343.073 0.00022137 356.786 3.59076 360.993 0V145.131C360.993 145.131 363.182 150.136 289.305 136.123Z" fill="#DED6EF"/>
<path d="M105.526 85.5C112.284 58.2651 94.0259 4.5 94.0259 4.5L92.2555 -1H-0.716689V156.479C-5.49885 186.175 54.6396 167.542 55.5259 166.096C56.4122 164.65 58.8483 169.04 66.4137 142.117C73.8796 115.548 98.7676 112.735 105.526 85.5Z" fill="#B9E7D6"/>
<path d="M360.355 252C341.179 265.405 333.101 276.396 326.355 306C333.89 345.865 333.274 360.153 326.355 376C313.161 413.112 324.295 422.159 360.355 428V252Z" fill="#F1DCC3"/>
<path d="M120.614 573.209C154.628 529.724 -3 540.077 -3 540.077V759.159C-3 759.159 68.3475 763.301 84.5252 759.159C100.703 755.018 130.154 705.735 134.717 682.129C139.28 658.522 86.5992 616.694 120.614 573.209Z" fill="#F4D6DD"/>
<path d="M50.6277 297.5C41.1821 278.271 0 267 0 267V404C0 404 13.351 383.024 20.7113 377C36.3177 364.227 45.1105 355.003 50.6277 337C55.1958 322.094 57.5967 311.687 50.6277 297.5Z" fill="#F4E493"/>
</g>
<defs>
<clipPath id="clip0_196_4593">
<rect width="360" height="760" fill="white"/>
</clipPath>
</defs>
</svg>
