<svg width="360" height="760" viewBox="0 0 360 760" fill="none" xmlns="http://www.w3.org/2000/svg">
<g clip-path="url(#clip0_170_1162)">
<path d="M-3 -1H362V759H-3V-1Z" fill="#F2EFE7"/>
<path d="M225.807 747.956C213.295 720.912 225.807 707.777 202.489 636.303C179.17 564.83 179.17 533.15 202.489 527.355C225.807 521.56 307.705 587.624 349.792 657.552C391.879 727.48 393.585 841.065 349.792 826.77C305.999 812.475 238.319 775 225.807 747.956Z" fill="#CCE5EF"/>
<path d="M225.259 210.226C222.759 178.226 238.259 127.726 275.259 121.726C312.259 115.726 380.259 147.726 381.759 187.226C383.259 226.726 300.759 305.226 285.259 306.726C269.759 308.226 227.759 242.226 225.259 210.226Z" fill="#DED6EF"/>
<path d="M27.0203 354.652C58.0203 351.152 46.0203 365.652 70.0203 382.652C94.0204 399.652 81.5203 347.652 113.02 354.653C144.52 361.653 131.52 404.652 120.02 435.652C108.52 466.653 89.0203 479.652 89.0203 479.652C89.0203 479.652 77.5203 487.153 27.0203 479.652C-23.4797 472.152 -20.9797 435.652 -20.9797 435.652C-20.9797 435.652 -10.9797 408.652 16.5203 408.652C44.0203 408.652 -3.97971 358.152 27.0203 354.652Z" fill="#F4E493"/>
</g>
<defs>
<clipPath id="clip0_170_1162">
<rect width="360" height="760" fill="white"/>
</clipPath>
</defs>
</svg>
