<svg width="18" height="18" viewBox="0 0 18 18" fill="none" xmlns="http://www.w3.org/2000/svg">
<g clip-path="url(#clip0_163_1090)">
<path d="M12.75 2.50492C13.8812 3.15806 14.8222 4.09531 15.4799 5.22389C16.1375 6.35248 16.489 7.63325 16.4996 8.93942C16.5101 10.2456 16.1794 11.5319 15.54 12.6709C14.9007 13.81 13.9749 14.7623 12.8544 15.4337C11.7339 16.105 10.4575 16.472 9.15157 16.4985C7.84562 16.5249 6.55541 16.2098 5.40867 15.5844C4.26192 14.9589 3.2984 14.0448 2.6135 12.9326C1.9286 11.8203 1.54606 10.5485 1.50375 9.24292L1.5 8.99992L1.50375 8.75692C1.54575 7.46166 1.92266 6.19939 2.59773 5.09316C3.2728 3.98694 4.22299 3.07451 5.35567 2.44483C6.48835 1.81515 7.76486 1.48972 9.06075 1.50025C10.3566 1.51078 11.6277 1.85692 12.75 2.50492ZM11.7802 6.96967C11.6511 6.84054 11.4793 6.76296 11.297 6.7515C11.1147 6.74004 10.9346 6.79548 10.7902 6.90742L10.7198 6.96967L8.25 9.43867L7.28025 8.46967L7.20975 8.40742C7.06544 8.29556 6.88528 8.24019 6.70305 8.25169C6.52083 8.26318 6.34906 8.34076 6.21995 8.46987C6.09084 8.59898 6.01326 8.77075 6.00177 8.95297C5.99027 9.1352 6.04564 9.31536 6.1575 9.45967L6.21975 9.53017L7.71975 11.0302L7.79025 11.0924C7.92178 11.1945 8.08352 11.2499 8.25 11.2499C8.41648 11.2499 8.57822 11.1945 8.70975 11.0924L8.78025 11.0302L11.7802 8.03017L11.8425 7.95967C11.9544 7.81537 12.0099 7.63518 11.9984 7.45291C11.987 7.27064 11.9094 7.09881 11.7802 6.96967Z" fill="#68B7FF"/>
<path d="M11.2971 6.75148C11.4794 6.76294 11.6512 6.84051 11.7803 6.96965C11.9095 7.09879 11.987 7.27062 11.9985 7.45288C12.01 7.63515 11.9545 7.81534 11.8426 7.95965L11.7803 8.03015L8.78034 11.0301L8.70984 11.0924C8.57831 11.1944 8.41657 11.2498 8.25009 11.2498C8.08361 11.2498 7.92187 11.1944 7.79034 11.0924L7.71984 11.0301L6.21984 9.53015L6.15759 9.45965C6.04573 9.31533 5.99036 9.13517 6.00186 8.95295C6.01335 8.77072 6.09093 8.59895 6.22004 8.46984C6.34915 8.34073 6.52092 8.26316 6.70314 8.25166C6.88537 8.24016 7.06553 8.29554 7.20984 8.4074L7.28034 8.46965L8.25009 9.43865L10.7198 6.96965L10.7903 6.9074C10.9346 6.79546 11.1148 6.74002 11.2971 6.75148Z" fill="white"/>
</g>
<defs>
<clipPath id="clip0_163_1090">
<rect width="18" height="18" fill="white"/>
</clipPath>
</defs>
</svg>
