{
  "accessors": [
    {
      "bufferView": 1,
      "componentType": 5126,
      "count": 224,
      "max": [
        19.397619247436523,
        31.881799697875977,
        10.0
      ],
      "min": [
        -20.89444923400879,
        -7.563418865203857,
        0.0
      ],
      "type": "VEC3"
    },
    {
      "bufferView": 1,
      "byteOffset": 2688,
      "componentType": 5126,
      "count": 224,
      "max": [
        0.7442836761474609,
        0.7574353814125061,
        0.7416497468948364
      ],
      "min": [
        -0.7497063875198364,
        -0.7574554085731506,
        -0.7416499257087708
      ],
      "type": "VEC3"
    },
    {
      "bufferView": 0,
      "componentType": 5125,
      "count": 1284,
      "type": "SCALAR"
    }
  ],
  "asset": {
    "extras": {
      "author": "Sir Swaghorse (https://sketchfab.com/andrewoesterling)",
      "license": "CC-BY-4.0 (http://creativecommons.org/licenses/by/4.0/)",
      "source": "https://sketchfab.com/3d-models/paw-print-0a016074e83e42e59319b9c1493e6963",
      "title": "Paw Print"
    },
    "generator": "Sketchfab-12.68.0",
    "version": "2.0"
  },
  "bufferViews": [
    {
      "buffer": 0,
      "byteLength": 5136,
      "name": "floatBufferViews",
      "target": 34963
    },
    {
      "buffer": 0,
      "byteLength": 5376,
      "byteOffset": 5136,
      "byteStride": 12,
      "name": "floatBufferViews",
      "target": 34962
    }
  ],
  "buffers": [
    {
      "byteLength": 10512,
      "uri": "scene.bin"
    }
  ],
  "materials": [
    {
      "doubleSided": true,
      "name": "ColorEffectR154G215B229-material",
      "pbrMetallicRoughness": {
        "baseColorFactor": [
          0.603922,
          0.843137,
          0.898039,
          1.0
        ],
        "metallicFactor": 0.0,
        "roughnessFactor": 0.6
      }
    }
  ],
  "meshes": [
    {
      "name": "ColorMaterial",
      "primitives": [
        {
          "attributes": {
            "NORMAL": 1,
            "POSITION": 0
          },
          "indices": 2,
          "material": 0,
          "mode": 4
        }
      ]
    }
  ],
  "nodes": [
    {
      "children": [
        1
      ],
      "matrix": [
        1.0,
        0.0,
        0.0,
        0.0,
        0.0,
        2.220446049250313e-16,
        -1.0,
        0.0,
        0.0,
        1.0,
        2.220446049250313e-16,
        0.0,
        0.0,
        0.0,
        0.0,
        1.0
      ],
      "name": "Sketchfab_model"
    },
    {
      "children": [
        2,
        4
      ],
      "name": "Collada visual scene group"
    },
    {
      "children": [
        3
      ],
      "matrix": [
        1.0,
        0.0,
        0.0,
        0.0,
        0.0,
        -1.745329252234029e-07,
        0.9999999999999848,
        0.0,
        0.0,
        -0.9999999999999848,
        -1.745329252234029e-07,
        0.0,
        -0.4410485029220581,
        5.465494155883789,
        9.861658096313477,
        1.0
      ],
      "name": "Line001"
    },
    {
      "mesh": 0,
      "name": "ColorMaterial"
    },
    {
      "children": [
        5
      ],
      "name": "EnvironmentAmbientLight"
    },
    {
      "name": "EnvironmentAmbientLight"
    }
  ],
  "scene": 0,
  "scenes": [
    {
      "name": "Sketchfab_Scene",
      "nodes": [
        0
      ]
    }
  ]
}
