<svg width="360" height="760" viewBox="0 0 360 760" fill="none" xmlns="http://www.w3.org/2000/svg">
<g clip-path="url(#clip0_158_814)">
<rect width="360" height="760" fill="#F2EFE7"/>
<path d="M280.807 714.956C268.295 687.912 280.807 674.777 257.489 603.303C234.17 531.83 234.17 500.15 257.489 494.355C280.807 488.56 362.705 554.624 404.792 624.552C446.879 694.48 448.585 808.065 404.792 793.77C360.999 779.475 293.319 742 280.807 714.956Z" fill="#CCE5EF"/>
<path d="M289.305 136.123C215.428 122.11 151.925 5.04558 263.169 0.00022137C343.073 0.00022137 356.786 3.59076 360.993 0V145.131C360.993 145.131 363.182 150.136 289.305 136.123Z" fill="#DED6EF"/>
<path d="M105.526 85.5C112.284 58.2651 94.0259 4.5 94.0259 4.5L92.2555 -1H-0.716704V156.479C-5.49887 186.175 54.6396 167.542 55.5259 166.096C56.4121 164.65 58.8482 169.04 66.4137 142.117C73.8796 115.548 98.7676 112.735 105.526 85.5Z" fill="#B9E7D6"/>
<path d="M360.355 252C341.179 265.405 333.101 276.396 326.355 306C333.89 345.865 333.274 360.153 326.355 376C313.161 413.112 324.295 422.159 360.355 428V252Z" fill="#F1DCC3"/>
<path d="M120.614 573.209C154.628 529.724 -3 540.077 -3 540.077V759.159C-3 759.159 68.3475 763.301 84.5252 759.159C100.703 755.018 130.154 705.735 134.717 682.129C139.28 658.522 86.5992 616.694 120.614 573.209Z" fill="#F4D6DD"/>
<path d="M50.6277 297.5C41.1821 278.271 0 267 0 267V404C0 404 13.351 383.024 20.7113 377C36.3177 364.227 45.1105 355.003 50.6277 337C55.1958 322.094 57.5967 311.687 50.6277 297.5Z" fill="#F4E493"/>
<path d="M46.1145 480.462C46.1145 480.462 42.3509 477.667 39.2717 479.064C36.1924 480.462 38.2452 486.051 38.2452 486.051C38.2452 486.051 36.1973 488.067 36.5345 490.942C36.8717 493.818 41.3245 494.436 43.0352 493.737C44.7459 493.039 44.4038 491.292 46.1145 489.894C47.8252 488.497 50.2202 488.148 51.2466 487.798C52.273 487.449 53.9837 484.654 52.273 481.859C50.5623 479.064 46.1145 480.462 46.1145 480.462Z" fill="#666666"/>
<path d="M31.4024 479.064C31.4024 479.064 29.0074 475.57 31.4024 474.173C33.7974 472.776 35.8502 476.269 35.8502 476.269C35.8502 476.269 37.561 479.413 35.8502 480.811C34.1395 482.208 31.4024 479.064 31.4024 479.064Z" fill="#666666"/>
<path d="M30.376 487.099C30.376 487.099 26.9546 485.353 28.3231 482.907C29.6917 480.462 33.4553 482.907 33.4553 482.907C33.4553 482.907 36.1924 485.003 34.8238 487.099C33.4553 489.196 30.376 487.099 30.376 487.099Z" fill="#666666"/>
<path d="M37.2188 475.221C37.2188 475.221 34.8238 471.727 36.8767 470.33C38.9295 468.932 41.6667 472.426 41.6667 472.426C41.6667 472.426 43.3774 475.221 41.3245 476.619C39.2717 478.016 37.2188 475.221 37.2188 475.221Z" fill="#666666"/>
<path d="M44.0617 474.173C44.0617 474.173 43.7195 470.33 46.1145 470.33C48.5095 470.33 49.5359 474.173 49.5359 474.173C49.5359 474.173 49.5359 478.016 47.1409 478.016C44.7459 478.016 44.0617 474.173 44.0617 474.173Z" fill="#666666"/>
<path d="M85.1145 498.462C85.1145 498.462 81.3509 495.667 78.2717 497.064C75.1924 498.462 77.2452 504.051 77.2452 504.051C77.2452 504.051 75.1973 506.067 75.5345 508.942C75.8717 511.818 80.3245 512.436 82.0352 511.737C83.7459 511.039 83.4038 509.292 85.1145 507.894C86.8252 506.497 89.2202 506.148 90.2466 505.798C91.273 505.449 92.9837 502.654 91.273 499.859C89.5623 497.064 85.1145 498.462 85.1145 498.462Z" fill="#666666"/>
<path d="M70.4024 497.064C70.4024 497.064 68.0074 493.57 70.4024 492.173C72.7974 490.776 74.8502 494.269 74.8502 494.269C74.8502 494.269 76.561 497.413 74.8502 498.811C73.1395 500.208 70.4024 497.064 70.4024 497.064Z" fill="#666666"/>
<path d="M69.376 505.099C69.376 505.099 65.9546 503.353 67.3231 500.907C68.6917 498.462 72.4553 500.907 72.4553 500.907C72.4553 500.907 75.1924 503.003 73.8238 505.099C72.4553 507.196 69.376 505.099 69.376 505.099Z" fill="#666666"/>
<path d="M76.2188 493.221C76.2188 493.221 73.8238 489.727 75.8767 488.33C77.9295 486.932 80.6667 490.426 80.6667 490.426C80.6667 490.426 82.3774 493.221 80.3245 494.619C78.2717 496.016 76.2188 493.221 76.2188 493.221Z" fill="#666666"/>
<path d="M83.0617 492.173C83.0617 492.173 82.7195 488.33 85.1145 488.33C87.5095 488.33 88.5359 492.173 88.5359 492.173C88.5359 492.173 88.5359 496.016 86.1409 496.016C83.7459 496.016 83.0617 492.173 83.0617 492.173Z" fill="#666666"/>
<path d="M60.1145 522.462C60.1145 522.462 56.3509 519.667 53.2717 521.064C50.1924 522.462 52.2452 528.051 52.2452 528.051C52.2452 528.051 50.1973 530.067 50.5345 532.942C50.8717 535.818 55.3245 536.436 57.0352 535.737C58.7459 535.039 58.4038 533.292 60.1145 531.894C61.8252 530.497 64.2202 530.148 65.2466 529.798C66.273 529.449 67.9837 526.654 66.273 523.859C64.5623 521.064 60.1145 522.462 60.1145 522.462Z" fill="#666666"/>
<path d="M45.4024 521.064C45.4024 521.064 43.0074 517.57 45.4024 516.173C47.7974 514.776 49.8502 518.269 49.8502 518.269C49.8502 518.269 51.561 521.413 49.8502 522.811C48.1395 524.208 45.4024 521.064 45.4024 521.064Z" fill="#666666"/>
<path d="M44.376 529.099C44.376 529.099 40.9546 527.353 42.3231 524.907C43.6917 522.462 47.4553 524.907 47.4553 524.907C47.4553 524.907 50.1924 527.003 48.8238 529.099C47.4553 531.196 44.376 529.099 44.376 529.099Z" fill="#666666"/>
<path d="M51.2188 517.221C51.2188 517.221 48.8238 513.727 50.8767 512.33C52.9295 510.932 55.6667 514.426 55.6667 514.426C55.6667 514.426 57.3774 517.221 55.3245 518.619C53.2717 520.016 51.2188 517.221 51.2188 517.221Z" fill="#666666"/>
<path d="M58.0617 516.173C58.0617 516.173 57.7195 512.33 60.1145 512.33C62.5095 512.33 63.5359 516.173 63.5359 516.173C63.5359 516.173 63.5359 520.016 61.1409 520.016C58.7459 520.016 58.0617 516.173 58.0617 516.173Z" fill="#666666"/>
</g>
<defs>
<clipPath id="clip0_158_814">
<rect width="360" height="760" fill="white"/>
</clipPath>
</defs>
</svg>
