<svg width="16" height="17" viewBox="0 0 16 17" fill="none" xmlns="http://www.w3.org/2000/svg">
<path fill-rule="evenodd" clip-rule="evenodd" d="M8.01177 15.9598C7.05562 15.8428 6.57755 15.7843 6.50029 15.4404C6.42304 15.0965 6.97076 14.7503 8.06619 14.058C10.0437 12.8081 11.387 10.3619 11.387 7.5487C11.387 5.00156 10.2857 2.75524 8.60958 1.42542C8.52131 1.35539 8.56456 1.21191 8.67724 1.21191V1.21191C12.1692 1.21191 15 4.52239 15 8.60608C15 12.6898 12.1692 16.0002 8.67724 16.0002C8.45248 16.0002 8.23047 15.9865 8.01177 15.9598Z" fill="white"/>
<path d="M8.60958 1.42542L8.23666 1.89546L8.60958 1.42542ZM6.50029 15.4404L5.91488 15.5719L6.50029 15.4404ZM7.74563 13.5508C9.53144 12.4221 10.787 10.1779 10.787 7.5487H11.987C11.987 10.5458 10.5559 13.1942 8.38676 14.5651L7.74563 13.5508ZM10.787 7.5487C10.787 5.17016 9.75833 3.10272 8.23666 1.89546L8.9825 0.955388C10.8131 2.40775 11.987 4.83297 11.987 7.5487H10.787ZM14.4 8.60608C14.4 4.76223 11.7532 1.81191 8.67724 1.81191V0.611914C12.5852 0.611914 15.6 4.28256 15.6 8.60608H14.4ZM8.67724 15.4002C11.7532 15.4002 14.4 12.4499 14.4 8.60608H15.6C15.6 12.9296 12.5852 16.6002 8.67724 16.6002V15.4002ZM8.08462 15.3642C8.27924 15.388 8.47693 15.4002 8.67724 15.4002V16.6002C8.42804 16.6002 8.1817 16.585 7.93892 16.5553L8.08462 15.3642ZM8.23666 1.89546C7.98089 1.69253 7.91457 1.37348 7.99507 1.11438C8.0776 0.848777 8.32801 0.611914 8.67724 0.611914V1.81191C8.9138 1.81191 9.08624 1.64679 9.14103 1.47043C9.19381 1.30057 9.15 1.08828 8.9825 0.955388L8.23666 1.89546ZM8.38676 14.5651C7.82395 14.9209 7.45204 15.1573 7.22334 15.3443C7.10947 15.4374 7.07263 15.4859 7.06631 15.496C7.06569 15.497 7.07793 15.4779 7.08617 15.4409C7.09512 15.4006 7.09589 15.3543 7.08571 15.3089L5.91488 15.5719C5.85216 15.2927 5.93215 15.0454 6.05035 14.8574C6.15923 14.6842 6.3133 14.5384 6.46363 14.4154C6.76333 14.1703 7.213 13.8874 7.74563 13.5508L8.38676 14.5651ZM7.93892 16.5553C7.4837 16.4997 7.06588 16.4505 6.7591 16.3614C6.44927 16.2714 6.02779 16.0746 5.91488 15.5719L7.08571 15.3089C7.05005 15.1502 6.90624 15.1545 7.09379 15.209C7.2844 15.2644 7.58369 15.3029 8.08462 15.3642L7.93892 16.5553Z" fill="#C0C0C0"/>
<path d="M1.91462 5.32185L1.82596 5.35651C1.30027 5.56201 1.03742 5.66475 0.949676 5.80475C0.847898 5.96714 0.847898 6.17342 0.949676 6.33581C1.03742 6.47581 1.30027 6.57856 1.82596 6.78406L1.91462 6.81872C2.30913 6.97293 2.50639 7.05004 2.67593 7.15963C2.96805 7.34846 3.20588 7.6102 3.36593 7.91903C3.45881 8.09827 3.51672 8.30199 3.63253 8.70943C3.79905 9.29526 3.88231 9.58817 3.99062 9.68485C4.1803 9.85415 4.46683 9.85415 4.65651 9.68485C4.76482 9.58817 4.84808 9.29526 5.01459 8.70944L5.01459 8.70943C5.13041 8.30199 5.18831 8.09827 5.2812 7.91903C5.44125 7.6102 5.67907 7.34846 5.97119 7.15963C6.14073 7.05004 6.33799 6.97293 6.73249 6.81872L6.7325 6.81872L6.82117 6.78406C7.34686 6.57856 7.60971 6.47581 7.69745 6.33581C7.79923 6.17342 7.79923 5.96714 7.69745 5.80475C7.60971 5.66475 7.34686 5.56201 6.82117 5.35651L6.7325 5.32185C6.33799 5.16764 6.14074 5.09053 5.97119 4.98094C5.67907 4.79211 5.44125 4.53036 5.2812 4.22154C5.18831 4.0423 5.13041 3.83858 5.01459 3.43113L5.01459 3.43113C4.84808 2.84531 4.76482 2.55239 4.65651 2.45572C4.46683 2.28642 4.1803 2.28642 3.99062 2.45572C3.88231 2.55239 3.79905 2.84531 3.63253 3.43113C3.51672 3.83858 3.45881 4.0423 3.36593 4.22154C3.20588 4.53036 2.96805 4.79211 2.67593 4.98094C2.50639 5.09053 2.30914 5.16763 1.91464 5.32185L1.91462 5.32185Z" fill="white" stroke="#C0C0C0" stroke-width="1.2"/>
</svg>
